<svg width="24" height="24" viewBox="0 0 24 24" fill="none" xmlns="http://www.w3.org/2000/svg">
<path d="M19.5044 18H20.3737C20.1926 18.3083 19.8666 18.5 19.5044 18.5H3.50439C3.13656 18.5 2.80682 18.304 2.63193 18H3.50439H19.5044ZM20.5002 17.6563L19.819 17.1114C19.8191 17.1115 19.8191 17.1115 19.819 17.1114C19.819 17.1113 19.8184 17.1109 19.8183 17.1108C19.8181 17.1107 19.8182 17.1108 19.8178 17.1104L19.8176 17.1103L19.8052 17.0996C19.7925 17.0885 19.7712 17.0694 19.7427 17.0421C19.6856 16.9875 19.5993 16.8998 19.4934 16.7762C19.2816 16.5291 18.9907 16.138 18.6968 15.5796C18.1106 14.4657 17.5044 12.6709 17.5044 10C17.5044 8.5469 17.1733 7.42184 16.641 6.55802C16.1092 5.69493 15.3949 5.12225 14.6739 4.74458C13.2523 3.99995 11.7778 3.99999 11.5069 4H11.5044H11.5019C11.2309 3.99999 9.75646 3.99995 8.33489 4.74458C7.61389 5.12225 6.89958 5.69493 6.36777 6.55802C5.83552 7.42184 5.50439 8.5469 5.50439 10C5.50439 12.6709 4.89818 14.4657 4.31193 15.5796C4.01807 16.138 3.7272 16.5291 3.51539 16.7762C3.40943 16.8998 3.32316 16.9875 3.26608 17.0421C3.23755 17.0694 3.21631 17.0885 3.20357 17.0996L3.19098 17.1104C3.19071 17.1106 3.19048 17.1108 3.19029 17.111C3.18997 17.1112 3.18976 17.1114 3.18973 17.1114C3.18972 17.1114 3.18975 17.1114 3.18975 17.1114L2.51136 17.6541C2.45842 17.3057 2.59255 16.9478 2.87674 16.7204L2.89837 16.7031L2.91794 16.6836C2.90516 16.6963 2.95749 16.6469 3.01936 16.5805C3.08386 16.5113 3.17067 16.4119 3.27207 16.2803C3.47496 16.0169 3.73566 15.6249 3.99295 15.087C4.50855 14.009 5.00439 12.3576 5.00439 10C5.00439 7.55003 5.89068 5.94771 7.11015 4.94791C8.34608 3.93461 9.97466 3.5 11.5044 3.5C13.0341 3.5 14.6627 3.93461 15.8986 4.94791C17.1181 5.94771 18.0044 7.55003 18.0044 10C18.0044 14.7535 19.9543 16.5724 20.1243 16.7141L20.1242 16.7142L20.132 16.7204C20.4221 16.9525 20.557 17.3127 20.5002 17.6563Z" stroke="#4889FF"/>
<path d="M11.5044 21.91C13.4744 21.91 15.0744 20.31 15.0744 18.34H7.93439C7.93439 20.31 9.53439 21.91 11.5044 21.91Z" stroke="#4889FF" stroke-width="1.5" stroke-miterlimit="10" stroke-linejoin="round"/>
</svg>
