<?xml version="1.0" encoding="UTF-8"?>
<svg width="96px" height="16px" viewBox="0 0 96 16" version="1.1" xmlns="http://www.w3.org/2000/svg" xmlns:xlink="http://www.w3.org/1999/xlink">
    <!-- Generator: Sketch 50.2 (55047) - http://www.bohemiancoding.com/sketch -->
    <title>FFI/Logo/Wordmark/Dark</title>
    <desc>Created with Sketch.</desc>
    <defs></defs>
    <g id="FFI/Logo/Wordmark/Dark" stroke="none" stroke-width="1" fill="none" fill-rule="evenodd">
        <g id="Page-1" transform="translate(2.000000, 3.000000)" fill="#3E3935">
            <path d="M87.5725744,7.75956284 C87.5963777,8.18579235 87.8939198,8.68852459 88.7985666,8.68852459 C89.5721759,8.68852459 89.9410091,8.28415301 89.9410091,7.87978142 C89.9410091,7.57377049 89.7624838,7.33333333 88.9175834,7.1147541 L87.5725744,6.77595628 C86.9655886,6.61202186 85.6921087,6.27322404 85.6921087,4.89617486 C85.6921087,3.57377049 87.0133144,2.77595628 88.9293661,2.77595628 C90.4527814,2.77595628 91.6786546,3.42076503 91.738163,4.77595628 L89.7624838,4.77595628 C89.7029754,4.02185792 89.0483829,3.96721311 88.7032342,3.96721311 C88.1201708,3.96721311 87.6796895,4.21857923 87.6796895,4.64480874 C87.6796895,5.10382514 88.0486417,5.19125683 88.6913325,5.35519126 L90.0244398,5.69398907 C91.3692109,6.03278689 92,6.66666667 92,7.59562842 C92,8.76502732 90.9050453,9.93442623 88.596238,9.93442623 C87.6441035,9.93442623 86.7394567,9.74863388 86.0611798,9.10382514 C85.5730918,8.63387978 85.5373868,8.09836066 85.5135834,7.7704918 L87.5725744,7.7704918 L87.5725744,7.75956284 Z M81.0386701,8.57923497 C81.9908047,8.57923497 82.6333765,8.05464481 82.6333765,6.25136612 C82.6333765,5.3442623 82.4429495,4.09836066 81.0029651,4.09836066 C79.4199224,4.09836066 79.4080207,5.78142077 79.4080207,6.40437158 C79.4080207,7.92349727 79.9675188,8.57923497 81.0386701,8.57923497 Z M81.0029651,2.77595628 C83.6808435,2.77595628 84.8472083,4.44808743 84.8472083,6.33879781 C84.8472083,8.25136612 83.6450194,9.96721311 80.967141,9.96721311 C78.8606624,9.96721311 77.1824062,8.76502732 77.1824062,6.39344262 C77.1824062,4.75409836 78.087053,2.77595628 81.0029651,2.77595628 Z M73.9214644,9.72677596 L76.0874515,9.72677596 L76.0874515,2.91803279 L73.9214644,2.91803279 L73.9214644,9.72677596 Z M73.8381527,1.74863388 L76.1469599,1.74863388 L76.1469599,0.0109289617 L73.8381527,0.0109289617 L73.8381527,1.74863388 Z M70.3746442,9.72677596 L72.5407503,9.72677596 L72.5407503,0 L70.3746442,0 L70.3746442,9.72677596 Z M65.5544631,8.57923497 C66.5065977,8.57923497 67.1492885,8.05464481 67.1492885,6.25136612 C67.1492885,5.3442623 66.9589806,4.09836066 65.5187581,4.09836066 C63.9358344,4.09836066 63.9240517,5.78142077 63.9240517,6.40437158 C63.9240517,7.92349727 64.4833118,8.57923497 65.5544631,8.57923497 Z M65.5187581,2.77595628 C68.1966365,2.77595628 69.3630013,4.44808743 69.3630013,6.33879781 C69.3630013,8.25136612 68.1609314,9.96721311 65.483053,9.96721311 C63.3764554,9.96721311 61.6984373,8.76502732 61.6984373,6.39344262 C61.6984373,4.75409836 62.6028461,2.77595628 65.5187581,2.77595628 Z M54.4858991,0.0109289617 L61.3174644,0.0109289617 L61.3174644,1.57377049 L56.7592393,1.57377049 L56.7592393,3.96721311 L61.0081397,3.96721311 L61.0081397,5.58469945 L56.7592393,5.58469945 L56.7592393,9.72677596 L54.4858991,9.72677596 L54.4858991,0.0109289617 Z M48.356533,7.6284153 C48.356533,8.08743169 48.6898991,8.6010929 49.4157827,8.6010929 C49.8085382,8.6010929 50.1298836,8.42622951 50.3441138,8.20765027 C50.7249677,7.78142077 50.74889,7.2568306 50.74889,6.52459016 C49.3562743,6.41530055 48.356533,6.81967213 48.356533,7.6284153 Z M51.0225097,9.72677596 C50.9512186,9.31147541 50.9512186,9.00546448 50.9512186,8.79781421 C50.1298836,9.89071038 49.1539457,9.89071038 48.7373868,9.89071038 C47.6662354,9.89071038 47.1901682,9.60655738 46.8926261,9.35519126 C46.4522639,8.95081967 46.2500543,8.40437158 46.2500543,7.8579235 C46.2500543,7.32240437 46.4522639,6.32786885 47.8209573,5.74863388 C48.7256041,5.37704918 50.0347891,5.37704918 50.74889,5.37704918 C50.74889,4.92896175 50.7368693,4.72131148 50.6416559,4.48087432 C50.451348,3.97814208 49.8800673,3.91256831 49.6777387,3.91256831 C49.3681759,3.91256831 49.0469495,4.03278689 48.8564036,4.28415301 C48.7016818,4.5136612 48.7016818,4.73224044 48.7016818,4.8852459 L46.5712807,4.8852459 C46.5833014,4.52459016 46.6307891,3.79234973 47.4043984,3.27868852 C48.0827943,2.83060109 48.9397154,2.73224044 49.6420336,2.73224044 C50.2608021,2.73224044 51.5463027,2.83060109 52.284088,3.60655738 C52.7839586,4.15300546 52.7959793,4.96174863 52.7959793,5.27868852 L52.807762,8.01092896 C52.807762,8.59016393 52.8554877,9.16939891 52.9862872,9.73770492 L51.0225097,9.73770492 L51.0225097,9.72677596 Z M42.8460543,9.72677596 L45.0121604,9.72677596 L45.0121604,0 L42.8460543,0 L42.8460543,9.72677596 Z M36.6096921,2.92896175 L36.6096921,6.98360656 C36.6096921,7.57377049 36.6096921,8.48087432 37.7640362,8.48087432 C39.156533,8.48087432 39.156533,7.53005464 39.156533,6.3715847 L39.156533,2.93989071 L41.3821475,2.93989071 L41.3821475,7.42076503 C41.4060699,8.8852459 41.4298732,9.06010929 41.4298732,9.23497268 C41.4416559,9.42076503 41.4535576,9.54098361 41.4893816,9.73770492 L39.382784,9.73770492 L39.3112549,8.83060109 C39.0970246,9.12568306 38.5376455,9.91256831 37.1332471,9.91256831 C36.1336248,9.91256831 35.3122898,9.49726776 34.9076326,8.99453552 C34.4196636,8.44808743 34.4196636,7.49726776 34.4196636,7.16939891 L34.4196636,2.93989071 L36.6096921,2.93989071 L36.6096921,2.92896175 Z M21.3992238,4.20765027 C21.3992238,3.78142077 21.3754204,3.35519126 21.3278137,2.92896175 L23.4225097,2.92896175 L23.4940388,3.80327869 C23.7320724,3.50819672 24.3032342,2.77595628 25.7790427,2.77595628 C27.4811022,2.77595628 27.9571695,3.72677596 28.1117723,4.05464481 C28.7307788,2.96174863 29.7184994,2.78688525 30.480207,2.78688525 C31.9798189,2.78688525 32.574903,3.60655738 32.7415265,3.87978142 C33.134401,4.46994536 33.1104787,5.28961749 33.1104787,5.87978142 L33.1104787,9.72677596 L30.9325899,9.72677596 L30.9325899,5.72677596 C30.9325899,5.00546448 30.8135731,4.19672131 29.6829133,4.19672131 C28.3737283,4.19672131 28.349806,5.31147541 28.349806,6.32786885 L28.349806,9.72677596 L26.1719172,9.72677596 L26.1719172,5.69398907 C26.1719172,5.16939891 26.1598965,4.19672131 24.9578266,4.19672131 C23.6010349,4.19672131 23.6010349,5.27868852 23.6010349,5.72677596 L23.6010349,9.72677596 L21.4230272,9.72677596 L21.4230272,4.20765027 L21.3992238,4.20765027 Z M15.9125485,4.63387978 C15.9125485,4.30601093 15.8530401,3.33333333 15.8054334,2.93989071 L17.84074,2.93989071 L17.8882277,4.24043716 C18.1619664,3.66120219 18.6499353,2.84153005 20.4113842,2.91803279 L20.4113842,4.71038251 C18.2095731,4.52459016 18.0787736,5.56284153 18.0787736,6.40437158 L18.0787736,9.75956284 L15.9125485,9.75956284 L15.9125485,4.63387978 Z M11.0567814,8.62295082 C12.0089159,8.62295082 12.6514877,8.09836066 12.6514877,6.29508197 C12.6514877,5.38797814 12.4610608,4.1420765 11.0209573,4.1420765 C9.43803364,4.1420765 9.42613195,5.82513661 9.42613195,6.44808743 C9.43803364,7.95628415 9.98563001,8.62295082 11.0567814,8.62295082 Z M11.032859,2.80874317 C13.7107374,2.80874317 14.8771022,4.48087432 14.8771022,6.3715847 C14.8771022,8.28415301 13.6751514,10 10.997273,10 C8.89055627,10 7.21241915,8.79781421 7.21241915,6.42622951 C7.20051746,4.78688525 8.11694696,2.80874317 11.032859,2.80874317 Z M0,0.0218579235 L6.83168435,0.0218579235 L6.83168435,1.58469945 L2.27322122,1.58469945 L2.27322122,3.97814208 L6.5221216,3.97814208 L6.5221216,5.59562842 L2.27322122,5.59562842 L2.27322122,9.73770492 L0,9.73770492 L0,0.0218579235 Z" id="Fill-1"></path>
        </g>
    </g>
</svg>