<svg width="162" height="26" viewBox="0 0 162 26" fill="none" xmlns="http://www.w3.org/2000/svg">
<mask id="mask0" mask-type="alpha" maskUnits="userSpaceOnUse" x="37" y="6" width="125" height="15">
<path fill-rule="evenodd" clip-rule="evenodd" d="M37.3048 6.73926H161.631V20.2222H37.3048V6.73926Z" fill="white"/>
</mask>
<g mask="url(#mask0)">
<path fill-rule="evenodd" clip-rule="evenodd" d="M155.27 16.8603C155.357 17.4268 155.588 17.7956 155.963 17.9681C156.337 18.1414 156.785 18.2265 157.31 18.2265C157.933 18.2265 158.379 18.1501 158.647 17.9957C158.915 17.8428 159.049 17.5939 159.049 17.248C159.049 17.0022 158.965 16.7863 158.797 16.6019C158.628 16.4176 158.308 16.2876 157.833 16.2143L156.486 15.9921C155.301 15.8077 154.42 15.491 153.84 15.0403C153.259 14.592 152.97 13.9113 152.97 13.0005C152.97 12.5325 153.073 12.1134 153.278 11.7447C153.484 11.3751 153.773 11.0616 154.148 10.8023C154.523 10.5439 154.968 10.3438 155.487 10.2028C156.003 10.061 156.574 9.98926 157.198 9.98926C157.97 9.98926 158.619 10.0665 159.143 10.2209C159.667 10.3753 160.094 10.581 160.424 10.8394C160.754 11.0986 161.004 11.4059 161.173 11.7628C161.34 12.1205 161.463 12.5018 161.538 12.9076L159.199 13.203C159.087 12.7602 158.89 12.434 158.61 12.2245C158.329 12.0149 157.878 11.9101 157.253 11.9101C156.905 11.9101 156.615 11.9377 156.384 11.9936C156.152 12.0488 155.972 12.1205 155.841 12.2063C155.71 12.293 155.617 12.3907 155.561 12.5018C155.504 12.6129 155.476 12.7177 155.476 12.8154C155.476 13.1234 155.573 13.348 155.766 13.4898C155.959 13.6316 156.337 13.7514 156.898 13.8499L158.133 14.0531C158.818 14.1642 159.386 14.306 159.835 14.4786C160.284 14.6496 160.642 14.8623 160.91 15.1144C161.179 15.3665 161.366 15.6659 161.472 16.0102C161.577 16.3553 161.631 16.7556 161.631 17.211C161.631 18.1233 161.282 18.8521 160.583 19.3997C159.885 19.948 158.806 20.2222 157.348 20.2222C156.76 20.2222 156.202 20.1694 155.673 20.0647C155.143 19.9607 154.669 19.7787 154.25 19.5202C153.833 19.261 153.49 18.9167 153.223 18.4857C152.954 18.0556 152.8 17.5127 152.763 16.8603H155.27ZM146.327 18.1533C147.075 18.1533 147.633 17.8885 148.001 17.3591C148.37 16.8296 148.553 16.0725 148.553 15.0876C148.553 14.102 148.37 13.3511 148.001 12.8335C147.633 12.3167 147.075 12.0582 146.327 12.0582C145.579 12.0582 145.02 12.3167 144.653 12.8335C144.285 13.3511 144.101 14.102 144.101 15.0876C144.101 16.0843 144.282 16.8446 144.644 17.3685C145.005 17.8917 145.566 18.1533 146.327 18.1533ZM146.327 20.2222C144.756 20.2222 143.54 19.7787 142.679 18.8915C141.82 18.0051 141.388 16.7374 141.388 15.0876C141.388 14.2997 141.504 13.5883 141.734 12.954C141.966 12.3198 142.296 11.7848 142.726 11.3476C143.156 10.9103 143.677 10.5747 144.288 10.3414C144.899 10.1067 145.579 9.98926 146.327 9.98926C147.087 9.98926 147.773 10.1067 148.385 10.3414C148.996 10.5747 149.517 10.9103 149.947 11.3476C150.377 11.7848 150.704 12.3198 150.929 12.954C151.153 13.5883 151.266 14.2997 151.266 15.0876C151.266 15.8881 151.15 16.6051 150.92 17.2385C150.689 17.8736 150.359 18.4125 149.929 18.8545C149.498 19.298 148.976 19.6368 148.367 19.87C147.755 20.1048 147.075 20.2222 146.327 20.2222ZM136.9 19.9268H139.519V10.2855H136.9V19.9268ZM136.863 9.06586H139.557V6.73926H136.863V9.06586ZM131.925 19.926H134.543V6.73926H131.925V19.926ZM125.117 18.1533C125.865 18.1533 126.423 17.8885 126.791 17.3591C127.159 16.8296 127.343 16.0725 127.343 15.0876C127.343 14.102 127.159 13.3511 126.791 12.8335C126.423 12.3167 125.865 12.0582 125.117 12.0582C124.369 12.0582 123.81 12.3167 123.443 12.8335C123.075 13.3511 122.891 14.102 122.891 15.0876C122.891 16.0843 123.071 16.8446 123.433 17.3685C123.795 17.8917 124.356 18.1533 125.117 18.1533ZM125.117 20.2222C123.546 20.2222 122.33 19.7787 121.47 18.8915C120.609 18.0051 120.178 16.7374 120.178 15.0876C120.178 14.2997 120.294 13.5883 120.525 12.954C120.756 12.3198 121.086 11.7848 121.516 11.3476C121.946 10.9103 122.467 10.5747 123.078 10.3414C123.689 10.1067 124.369 9.98926 125.117 9.98926C125.877 9.98926 126.563 10.1067 127.175 10.3414C127.786 10.5747 128.307 10.9103 128.737 11.3476C129.167 11.7848 129.494 12.3198 129.718 12.954C129.944 13.5883 130.056 14.2997 130.056 15.0876C130.056 15.8881 129.941 16.6051 129.709 17.2385C129.479 17.8736 129.149 18.4125 128.719 18.8545C128.287 19.298 127.767 19.6368 127.157 19.87C126.545 20.1048 125.865 20.2222 125.117 20.2222ZM110.037 6.73926H118.811V9.10289H112.825V12.2063H118.456V14.57H112.825V19.9268H110.037V6.73926ZM105.081 15.6234L103.921 15.6785C103.371 15.703 102.929 15.7589 102.592 15.8448C102.256 15.9307 101.996 16.0386 101.816 16.1678C101.635 16.2962 101.514 16.4483 101.451 16.6193C101.389 16.7926 101.358 16.984 101.358 17.1936C101.358 17.5127 101.47 17.7656 101.695 17.9508C101.919 18.1343 102.231 18.2265 102.63 18.2265C103.304 18.2265 103.852 18.0729 104.276 17.7656C104.512 17.5939 104.706 17.3748 104.856 17.1093C105.006 16.8446 105.081 16.516 105.081 16.1221V15.6234ZM105.137 18.7079C104.75 19.1389 104.316 19.4895 103.837 19.7597C103.356 20.0308 102.736 20.1663 101.976 20.1663C101.539 20.1663 101.123 20.1111 100.731 20C100.339 19.8897 99.9948 19.7172 99.702 19.4832C99.4091 19.2492 99.1753 18.9506 99.0005 18.5874C98.8265 18.2234 98.7387 17.79 98.7387 17.285C98.7387 16.6193 98.8896 16.0788 99.188 15.6604C99.4873 15.2413 99.8799 14.9151 100.366 14.6803C100.854 14.4471 101.399 14.2816 102.003 14.1823C102.608 14.0847 103.222 14.0224 103.846 13.9972L105.099 13.942V13.4622C105.099 12.8705 104.935 12.4648 104.603 12.2434C104.273 12.0212 103.884 11.9101 103.434 11.9101C102.399 11.9101 101.807 12.2977 101.657 13.0746L99.2623 12.8524C99.437 11.8431 99.8863 11.1136 100.609 10.6645C101.332 10.2146 102.306 9.98926 103.528 9.98926C104.276 9.98926 104.912 10.0791 105.436 10.2579C105.96 10.436 106.38 10.6913 106.699 11.0245C107.017 11.3562 107.247 11.7604 107.391 12.2339C107.534 12.7074 107.606 13.24 107.606 13.8317V19.9268H105.137V18.7079ZM94.3807 19.926H96.9991V6.73926H94.3807V19.926ZM83.2881 10.2855H85.9064V16.3065C85.9064 16.9959 86.0301 17.4607 86.2807 17.7002C86.5297 17.9405 86.8729 18.0603 87.3102 18.0603C87.6461 18.0603 87.9239 18.0114 88.1425 17.9137C88.3604 17.8145 88.5695 17.6727 88.769 17.4883C88.9685 17.3157 89.1273 17.1093 89.2462 16.8698C89.3643 16.6295 89.4234 16.3679 89.4234 16.0843V10.2855H92.0433V19.9268H89.4984V18.5968C89.0986 19.1633 88.6477 19.5746 88.1425 19.833C87.6374 20.093 87.0971 20.2222 86.5233 20.2222C85.4133 20.2222 84.5969 19.9347 84.0726 19.3627C83.5499 18.7899 83.2881 17.8885 83.2881 16.6571V10.2855ZM67.0115 10.2855H69.5564V11.5776C69.9179 11.0363 70.3417 10.6361 70.8277 10.3777C71.3153 10.1193 71.826 9.98926 72.3615 9.98926C73.0733 9.98926 73.6535 10.1319 74.102 10.4147C74.5513 10.6983 74.8689 11.1104 75.0564 11.6517C75.5049 11.0616 75.9798 10.6361 76.4777 10.3777C76.9765 10.1193 77.5263 9.98926 78.1241 9.98926C79.1344 9.98926 79.8917 10.2634 80.3969 10.8118C80.9028 11.3602 81.155 12.2489 81.155 13.4803V19.9268H78.5358V13.8317C78.5358 13.4874 78.5039 13.2062 78.4425 12.9911C78.3794 12.7752 78.2956 12.6066 78.1895 12.4829C78.0834 12.3608 77.9565 12.2741 77.8064 12.2245C77.6564 12.1756 77.5008 12.1504 77.338 12.1504C77.077 12.1504 76.836 12.1945 76.6182 12.2804C76.3995 12.3663 76.1848 12.5136 75.9726 12.724C75.7978 12.8957 75.6574 13.0927 75.552 13.3141C75.4459 13.5355 75.3932 13.7703 75.3932 14.0161V19.9268H72.7741V13.8317C72.7741 13.4874 72.7422 13.2062 72.6807 12.9911C72.6185 12.7752 72.5339 12.6066 72.4277 12.4829C72.3224 12.3608 72.1947 12.2741 72.0447 12.2245C71.8946 12.1756 71.739 12.1504 71.577 12.1504C71.3153 12.1504 71.0751 12.1945 70.8564 12.2804C70.6385 12.3663 70.4231 12.5136 70.2116 12.724C70.036 12.8957 69.8964 13.1014 69.7902 13.3417C69.6841 13.582 69.6314 13.8443 69.6314 14.1272V19.9268H67.0115V10.2855ZM59.174 10.2855H61.7182V11.6336C62.043 11.1293 62.4356 10.7503 62.8968 10.4974C63.3589 10.2453 63.8449 10.1193 64.3556 10.1193C64.6062 10.1193 64.8113 10.1287 64.9741 10.1468C65.1345 10.1657 65.279 10.187 65.4043 10.2114L65.085 12.557C64.7858 12.4829 64.4179 12.4459 63.9814 12.4459C63.6949 12.4459 63.4204 12.4805 63.1586 12.5475C62.8968 12.616 62.659 12.7413 62.4476 12.9265C62.2225 13.1234 62.0581 13.3448 61.952 13.5907C61.8458 13.838 61.7924 14.0902 61.7924 14.3486V19.9268H59.174V10.2855ZM52.3852 18.1533C53.133 18.1533 53.6916 17.8885 54.0595 17.3591C54.4274 16.8296 54.6101 16.0725 54.6101 15.0876C54.6101 14.102 54.4274 13.3511 54.0595 12.8335C53.6916 12.3167 53.133 12.0582 52.3852 12.0582C51.6366 12.0582 51.078 12.3167 50.7109 12.8335C50.343 13.3511 50.1587 14.102 50.1587 15.0876C50.1587 16.0843 50.3398 16.8446 50.7014 17.3685C51.0629 17.8917 51.6239 18.1533 52.3852 18.1533ZM52.3852 20.2222C50.8131 20.2222 49.5977 19.7787 48.7374 18.8915C47.8763 18.0051 47.4462 16.7374 47.4462 15.0876C47.4462 14.2997 47.5619 13.5883 47.7926 12.954C48.0232 12.3198 48.3536 11.7848 48.7837 11.3476C49.2138 10.9103 49.7342 10.5747 50.3462 10.3414C50.9567 10.1067 51.6367 9.98926 52.3852 9.98926C53.1449 9.98926 53.8312 10.1067 54.4433 10.3414C55.053 10.5747 55.5741 10.9103 56.0043 11.3476C56.4352 11.7848 56.7624 12.3198 56.9874 12.954C57.2117 13.5883 57.3234 14.2997 57.3234 15.0876C57.3234 15.8881 57.2085 16.6051 56.9779 17.2385C56.7464 17.8736 56.4169 18.4125 55.9859 18.8545C55.5558 19.298 55.0347 19.6368 54.4242 19.87C53.8121 20.1048 53.133 20.2222 52.3852 20.2222ZM37.3048 6.73926H46.0784V9.10289H40.0924V12.2063H45.7233V14.57H40.0924V19.9268H37.3048V6.73926Z" fill="#191E1E"/>
</g>
<path fill-rule="evenodd" clip-rule="evenodd" d="M0 0.78772H25.3301V25.7955H0V0.78772Z" fill="white"/>
<mask id="mask1" mask-type="alpha" maskUnits="userSpaceOnUse" x="0" y="0" width="26" height="26">
<path fill-rule="evenodd" clip-rule="evenodd" d="M0 0.78772H25.3301V25.7955H0V0.78772Z" fill="white"/>
</mask>
<g mask="url(#mask1)">
<path fill-rule="evenodd" clip-rule="evenodd" d="M15.3635 14.5721V19.8564H9.96563V14.5721H6.67775L12.6558 6.72717L18.6522 14.5721H15.3635ZM-0.000152588 25.7954H25.3301V0.787354H-0.000152588V25.7954Z" fill="#34BC72"/>
</g>
</svg>
