<svg xmlns="http://www.w3.org/2000/svg" viewBox="0 0 202.54 31.74"><defs><style>.cls-1{fill:#fff;}.cls-2{fill:#39b771;}</style></defs><title>Asset 1</title><g id="Layer_2" data-name="Layer 2"><g id="Layer_2-2" data-name="Layer 2"><path class="cls-1" d="M46.75,7.55h11v3h-7.5v3.94H57.3v3H50.24v6.8H46.75Z"/><path class="cls-1" d="M65.64,24.67A6.05,6.05,0,0,1,61.07,23a6.72,6.72,0,0,1-1.62-4.83,8,8,0,0,1,.44-2.71,5.68,5.68,0,0,1,1.24-2,5.36,5.36,0,0,1,2-1.27,7.54,7.54,0,0,1,5.13,0,5.36,5.36,0,0,1,2,1.27,5.52,5.52,0,0,1,1.23,2,8.24,8.24,0,0,1,.42,2.71,8,8,0,0,1-.43,2.73,5.63,5.63,0,0,1-1.24,2.05,5.49,5.49,0,0,1-2,1.29A7,7,0,0,1,65.64,24.67Zm0-2.63a2.38,2.38,0,0,0,2.1-1,5.06,5.06,0,0,0,.69-2.88,5,5,0,0,0-.69-2.86,2.71,2.71,0,0,0-4.19,0,4.89,4.89,0,0,0-.7,2.86A5.14,5.14,0,0,0,63.53,21,2.38,2.38,0,0,0,65.64,22Z"/><path class="cls-1" d="M74.15,12.05h3.19v1.72a4.15,4.15,0,0,1,1.47-1.45,3.73,3.73,0,0,1,1.83-.48c.32,0,.57,0,.78,0L82,12l-.4,3a5.56,5.56,0,0,0-1.39-.14,3.88,3.88,0,0,0-1,.13,2,2,0,0,0-.89.48,2.35,2.35,0,0,0-.62.84,2.46,2.46,0,0,0-.2,1v7.08H74.15Z"/><path class="cls-1" d="M84,12.05h3.19V13.7a4.44,4.44,0,0,1,1.59-1.53,4.36,4.36,0,0,1,4.11.05,2.88,2.88,0,0,1,1.19,1.57,5.54,5.54,0,0,1,1.78-1.62,4.39,4.39,0,0,1,2.07-.49,3.66,3.66,0,0,1,2.84,1,4.94,4.94,0,0,1,1,3.39v8.18H98.41V16.56a3.9,3.9,0,0,0-.12-1.07,1.71,1.71,0,0,0-.31-.65,1,1,0,0,0-.48-.32,1.7,1.7,0,0,0-.59-.1,2.37,2.37,0,0,0-.9.17,2.47,2.47,0,0,0-.81.56,2.83,2.83,0,0,0-.53.75,2.1,2.1,0,0,0-.2.89v7.5H91.19V16.56a3.9,3.9,0,0,0-.12-1.07,1.71,1.71,0,0,0-.31-.65,1,1,0,0,0-.48-.32,1.66,1.66,0,0,0-.59-.1,2.37,2.37,0,0,0-.9.17,2.47,2.47,0,0,0-.81.56,2.69,2.69,0,0,0-.53.78,2.55,2.55,0,0,0-.2,1v7.36H84Z"/><path class="cls-1" d="M104.37,12.05h3.28V19.7a2.47,2.47,0,0,0,.47,1.77,1.78,1.78,0,0,0,1.29.45,2.59,2.59,0,0,0,1-.18,3.47,3.47,0,0,0,.79-.54,2.6,2.6,0,0,0,.59-.79,2.2,2.2,0,0,0,.23-1V12.05h3.28V24.29h-3.19V22.6a4.73,4.73,0,0,1-1.7,1.57,4.32,4.32,0,0,1-2,.5,4,4,0,0,1-3.07-1.09,5.08,5.08,0,0,1-1-3.44Z"/><path class="cls-1" d="M118.27,7.55h3.28V24.29h-3.28Z"/><path class="cls-1" d="M131.75,22.74a6.44,6.44,0,0,1-1.63,1.34,4.74,4.74,0,0,1-2.34.52,5.76,5.76,0,0,1-1.56-.21,3.62,3.62,0,0,1-1.28-.66,3.23,3.23,0,0,1-.88-1.14,3.79,3.79,0,0,1-.33-1.65,3.51,3.51,0,0,1,.56-2.06,3.83,3.83,0,0,1,1.48-1.25,7.81,7.81,0,0,1,2-.63,19.64,19.64,0,0,1,2.31-.23l1.57-.07v-.61a1.75,1.75,0,0,0-.62-1.55,2.57,2.57,0,0,0-1.47-.42q-2,0-2.22,1.47l-3-.28a3.86,3.86,0,0,1,1.69-2.77,6.75,6.75,0,0,1,3.66-.86,7.28,7.28,0,0,1,2.39.34,3.89,3.89,0,0,1,1.58,1,3.77,3.77,0,0,1,.87,1.54,7,7,0,0,1,.27,2v7.73h-3.09Zm-.07-3.91-1.46.07a8.15,8.15,0,0,0-1.66.21,3.13,3.13,0,0,0-1,.41,1.27,1.27,0,0,0-.45.57,2.15,2.15,0,0,0-.12.73,1.17,1.17,0,0,0,.42,1,1.74,1.74,0,0,0,1.17.35,3.41,3.41,0,0,0,2.07-.58,2.62,2.62,0,0,0,.72-.83,2.55,2.55,0,0,0,.29-1.26Z"/><path class="cls-1" d="M137.89,7.55h11v3h-7.5v3.94h7.06v3h-7.06v6.8h-3.49Z"/><path class="cls-1" d="M156.78,24.67A6.05,6.05,0,0,1,152.21,23a6.72,6.72,0,0,1-1.62-4.83,8,8,0,0,1,.44-2.71,5.68,5.68,0,0,1,1.24-2,5.36,5.36,0,0,1,2-1.27,6.93,6.93,0,0,1,2.55-.45,7,7,0,0,1,2.58.45,5.36,5.36,0,0,1,2,1.27,5.52,5.52,0,0,1,1.23,2,8.24,8.24,0,0,1,.42,2.71,8,8,0,0,1-.43,2.73,5.77,5.77,0,0,1-1.24,2.05,5.49,5.49,0,0,1-2,1.29A7,7,0,0,1,156.78,24.67Zm0-2.63a2.38,2.38,0,0,0,2.1-1,5.06,5.06,0,0,0,.69-2.88,5,5,0,0,0-.69-2.86,2.72,2.72,0,0,0-4.2,0,5,5,0,0,0-.69,2.86,5.14,5.14,0,0,0,.68,2.89A2.38,2.38,0,0,0,156.78,22Z"/><path class="cls-1" d="M165.31,7.55h3.28V24.29h-3.28Z"/><path class="cls-1" d="M171.5,7.55h3.38v3H171.5Zm.05,4.5h3.28V24.29h-3.28Z"/><path class="cls-1" d="M183.36,24.67A6.05,6.05,0,0,1,178.79,23a6.72,6.72,0,0,1-1.62-4.83,8,8,0,0,1,.44-2.71,5.68,5.68,0,0,1,1.24-2,5.36,5.36,0,0,1,2-1.27,6.89,6.89,0,0,1,2.55-.45,7.06,7.06,0,0,1,2.58.45,5.44,5.44,0,0,1,2,1.27,5.52,5.52,0,0,1,1.23,2,8.24,8.24,0,0,1,.42,2.71,8.23,8.23,0,0,1-.43,2.73,5.65,5.65,0,0,1-1.25,2.05,5.45,5.45,0,0,1-2,1.29A7,7,0,0,1,183.36,24.67Zm0-2.63a2.38,2.38,0,0,0,2.1-1,5.06,5.06,0,0,0,.69-2.88,5,5,0,0,0-.69-2.86,2.72,2.72,0,0,0-4.2,0,5,5,0,0,0-.69,2.86,5.14,5.14,0,0,0,.68,2.89A2.37,2.37,0,0,0,183.36,22Z"/><path class="cls-1" d="M194.57,20.4a1.7,1.7,0,0,0,.87,1.41,3.91,3.91,0,0,0,1.68.32,3.51,3.51,0,0,0,1.68-.29,1,1,0,0,0,.5-.95,1.2,1.2,0,0,0-.31-.82,2.08,2.08,0,0,0-1.21-.49l-1.69-.28a7.34,7.34,0,0,1-3.32-1.21,3.1,3.1,0,0,1-1.09-2.59,3.2,3.2,0,0,1,.39-1.59,3.56,3.56,0,0,1,1.09-1.2,5.41,5.41,0,0,1,1.68-.76,8,8,0,0,1,2.14-.27,8.91,8.91,0,0,1,2.44.29,4.84,4.84,0,0,1,1.61.79,3.26,3.26,0,0,1,.93,1.17,5.84,5.84,0,0,1,.46,1.45l-2.93.38a2.13,2.13,0,0,0-.74-1.24,2.82,2.82,0,0,0-1.7-.4,4.76,4.76,0,0,0-1.09.1,2.18,2.18,0,0,0-.68.27,1,1,0,0,0-.35.38.88.88,0,0,0-.1.4,1,1,0,0,0,.36.85,3.72,3.72,0,0,0,1.42.46l1.54.26a10.87,10.87,0,0,1,2.14.54,4,4,0,0,1,1.35.8,2.7,2.7,0,0,1,.7,1.14,5.41,5.41,0,0,1,.2,1.53,3.35,3.35,0,0,1-1.32,2.77,6.42,6.42,0,0,1-4.05,1.05,10.92,10.92,0,0,1-2.1-.2,5.6,5.6,0,0,1-1.78-.69A4.07,4.07,0,0,1,192,22.46a4.2,4.2,0,0,1-.57-2.06Z"/><rect class="cls-2" width="31.74" height="31.74"/><path class="cls-1" d="M19.25,17.49V24.2H12.49V17.49H8.37l7.49-9.95,7.51,10Z"/></g></g></svg>