<?xml version="1.0" encoding="UTF-8"?>
<svg width="16px" height="16px" viewBox="0 0 16 16" version="1.1" xmlns="http://www.w3.org/2000/svg" xmlns:xlink="http://www.w3.org/1999/xlink">
    <!-- Generator: Sketch 52 (66869) - http://www.bohemiancoding.com/sketch -->
    <title>Fill 1</title>
    <desc>Created with Sketch.</desc>
    <g id="Symbols" stroke="none" stroke-width="1" fill="none" fill-rule="evenodd">
        <g id="Label/Information" fill="#0E45DE">
            <path d="M8.51636364,12.1527273 C8.58181818,12.0792727 8.63272727,12 8.66909091,11.9127273 C8.70545455,11.8254545 8.72727273,11.7309091 8.72727273,11.6363636 C8.72727273,11.5418182 8.70545455,11.4472727 8.66909091,11.36 C8.63272727,11.2727273 8.58181818,11.1927273 8.51636364,11.12 C8.24,10.8509091 7.75272727,10.8509091 7.48363636,11.12 C7.41818182,11.1927273 7.36727273,11.2654545 7.33090909,11.36 C7.29454545,11.4472727 7.27272727,11.5418182 7.27272727,11.6363636 C7.27272727,11.8327273 7.34545455,12.0145455 7.48363636,12.1527273 C7.62181818,12.2901818 7.80363636,12.3636364 8,12.3636364 C8.19636364,12.3636364 8.37818182,12.2901818 8.51636364,12.1527273 M8.17163636,9.41672727 C8.44581818,9.32581818 10.8509091,8.46909091 10.8509091,6.54690909 C10.8530909,5.312 10.072,4.20727273 8.90690909,3.79781818 C7.39490909,3.26836364 5.73018182,4.06327273 5.19781818,5.57672727 C5.064,5.95563636 5.26327273,6.37090909 5.64218182,6.504 C6.02181818,6.63781818 6.43709091,6.43854545 6.56945455,6.05963636 C6.83636364,5.30327273 7.66836364,4.90472727 8.42472727,5.17018182 C9.00727273,5.37454545 9.39709091,5.92727273 9.39636364,6.54545455 C9.39636364,7.29745455 8.14763636,7.88945455 7.712,8.03709091 C7.33090909,8.16436364 7.12436364,8.57672727 7.25163636,8.95709091 C7.35345455,9.26181818 7.63709091,9.45454545 7.94181818,9.45454545 C8.01745455,9.45454545 8.09527273,9.44218182 8.17163636,9.41672727 M8,1.45454545 C4.39127273,1.45454545 1.45454545,4.39127273 1.45454545,8 C1.45454545,11.6094545 4.39127273,14.5454545 8,14.5454545 C11.6094545,14.5454545 14.5454545,11.6094545 14.5454545,8 C14.5454545,4.39127273 11.6094545,1.45454545 8,1.45454545 M8,16 C3.58909091,16 0,12.4109091 0,8 C0,3.58909091 3.58909091,0 8,0 C12.4109091,0 16,3.58909091 16,8 C16,12.4109091 12.4109091,16 8,16" id="Fill-1"></path>
        </g>
    </g>
</svg>